<?xml version="1.0" encoding="UTF-8"?>
<svg xmlns="http://www.w3.org/2000/svg" viewBox="0 0 64 64" width="64" height="64">
  <defs>
    <linearGradient id="fg" x1="0%" y1="0%" x2="100%" y2="100%">
      <stop offset="0%" stop-color="#7C3AED"/>
      <stop offset="50%" stop-color="#8B5CF6"/>
      <stop offset="100%" stop-color="#A78BFA"/>
    </linearGradient>
  </defs>
  <g transform="translate(32, 32)">
    <!-- Connection lines -->
    <line x1="0" y1="-24" x2="0" y2="-10" stroke="#8B5CF6" stroke-width="1.5" opacity="0.5"/>
    <line x1="21" y1="-12" x2="9" y2="-5" stroke="#8B5CF6" stroke-width="1.5" opacity="0.5"/>
    <line x1="21" y1="12" x2="9" y2="5" stroke="#8B5CF6" stroke-width="1.5" opacity="0.5"/>
    <line x1="0" y1="24" x2="0" y2="10" stroke="#8B5CF6" stroke-width="1.5" opacity="0.5"/>
    <line x1="-21" y1="12" x2="-9" y2="5" stroke="#8B5CF6" stroke-width="1.5" opacity="0.5"/>
    <line x1="-21" y1="-12" x2="-9" y2="-5" stroke="#8B5CF6" stroke-width="1.5" opacity="0.5"/>
    <!-- Hexagon -->
    <polygon points="0,-12 10,-6 10,6 0,12 -10,6 -10,-6" fill="url(#fg)" opacity="0.9"/>
    <!-- Diamond core -->
    <polygon points="0,-6 6,0 0,6 -6,0" fill="#C4B5FD" opacity="0.9"/>
    <!-- Nodes -->
    <circle cx="0" cy="-24" r="3" fill="#8B5CF6"/>
    <circle cx="21" cy="-12" r="3" fill="#8B5CF6"/>
    <circle cx="21" cy="12" r="3" fill="#8B5CF6"/>
    <circle cx="0" cy="24" r="3" fill="#8B5CF6"/>
    <circle cx="-21" cy="12" r="3" fill="#8B5CF6"/>
    <circle cx="-21" cy="-12" r="3" fill="#8B5CF6"/>
    <!-- Highlights -->
    <circle cx="0" cy="-24" r="1.5" fill="#C4B5FD" opacity="0.7"/>
    <circle cx="21" cy="-12" r="1.5" fill="#C4B5FD" opacity="0.7"/>
    <circle cx="21" cy="12" r="1.5" fill="#C4B5FD" opacity="0.7"/>
    <circle cx="0" cy="24" r="1.5" fill="#C4B5FD" opacity="0.7"/>
    <circle cx="-21" cy="12" r="1.5" fill="#C4B5FD" opacity="0.7"/>
    <circle cx="-21" cy="-12" r="1.5" fill="#C4B5FD" opacity="0.7"/>
  </g>
</svg>