<?xml version="1.0" standalone="no"?>
<!DOCTYPE svg PUBLIC "-//W3C//DTD SVG 20010904//EN"
 "http://www.w3.org/TR/2001/REC-SVG-20010904/DTD/svg10.dtd">
<svg version="1.0" xmlns="http://www.w3.org/2000/svg"
 width="1024.000000pt" height="1024.000000pt" viewBox="0 0 1024.000000 1024.000000"
 preserveAspectRatio="xMidYMid meet">
<metadata>
Created by potrace 1.16, written by Peter Selinger 2001-2019
</metadata>
<g transform="translate(0.000000,1024.000000) scale(0.100000,-0.100000)"
fill="#000000" stroke="none">
<path d="M5791 7695 c-72 -34 -202 -137 -289 -229 -136 -147 -251 -315 -357
-527 l-64 -126 -198 -6 c-207 -6 -329 -22 -518 -71 -117 -30 -276 -83 -357
-119 l-57 -25 -113 115 c-248 253 -522 444 -740 517 -168 57 -229 25 -317
-165 -72 -154 -133 -374 -167 -603 -21 -138 -30 -543 -15 -687 15 -143 46
-322 73 -417 21 -71 21 -75 5 -145 -39 -170 -50 -264 -54 -492 l-4 -230 -108
-3 c-113 -3 -129 -10 -115 -47 5 -12 28 -15 124 -15 l117 0 6 -67 c3 -38 2
-71 -1 -74 -4 -3 -67 -12 -141 -19 -153 -14 -161 -16 -161 -40 0 -35 20 -38
150 -24 176 19 180 18 180 -8 0 -13 9 -57 20 -98 10 -41 17 -76 15 -78 -2 -2
-39 -14 -81 -26 -80 -23 -102 -41 -91 -70 8 -22 28 -20 118 8 l77 23 37 -101
c128 -349 347 -649 646 -888 182 -146 512 -327 754 -413 567 -204 1201 -239
1780 -100 328 79 646 219 897 395 108 75 312 269 405 385 203 250 398 621 473
897 8 30 19 50 31 53 27 9 114 108 138 157 61 126 72 325 27 463 -32 100 -81
173 -141 213 -26 17 -50 32 -53 34 -4 2 -22 33 -40 70 -19 37 -52 84 -74 104
-101 91 -261 127 -376 85 l-59 -21 -64 29 -64 29 -19 73 c-42 171 -166 446
-272 606 -54 81 -54 82 -80 235 -46 274 -113 500 -219 741 -119 270 -342 600
-464 688 -67 48 -118 52 -200 14z m133 -146 c17 -12 56 -53 87 -93 290 -372
479 -845 544 -1364 5 -34 16 -63 31 -81 51 -62 177 -289 226 -411 22 -54 88
-252 88 -264 0 -7 -25 -23 -56 -35 -103 -43 -194 -134 -223 -223 -8 -24 -20
-38 -35 -42 -12 -3 -42 -20 -67 -39 -24 -18 -83 -50 -131 -71 -91 -40 -109
-59 -83 -85 13 -14 20 -13 61 7 26 13 48 21 50 20 1 -2 -6 -30 -17 -62 -48
-146 1 -385 101 -500 l33 -37 -17 -54 c-51 -161 -243 -496 -358 -622 -47 -53
-53 -106 -14 -124 40 -18 70 -3 137 68 158 170 399 622 399 750 0 29 -10 46
-54 94 -77 83 -100 146 -101 274 0 85 3 106 22 141 28 53 92 107 143 123 31 9
41 18 46 39 22 102 63 161 136 199 79 40 154 39 232 -5 l59 -34 61 28 c84 39
163 38 238 -2 62 -34 112 -101 123 -164 6 -38 11 -43 58 -64 63 -28 98 -64
129 -131 20 -44 23 -65 23 -185 0 -120 -3 -141 -23 -186 -25 -55 -79 -113
-126 -135 -24 -12 -33 -29 -66 -129 -182 -557 -513 -1009 -923 -1259 -236
-144 -546 -265 -832 -324 -227 -47 -284 -52 -605 -51 -260 1 -326 4 -445 22
-560 87 -1085 334 -1435 675 -175 171 -334 409 -419 623 -64 163 -70 145 56
183 59 18 114 34 121 36 14 5 16 34 3 54 -7 11 -30 7 -127 -22 -78 -23 -121
-32 -125 -25 -10 16 -42 158 -37 163 2 3 44 8 94 11 94 7 114 15 114 46 0 28
-18 30 -125 18 -54 -6 -99 -9 -100 -8 -2 2 -6 31 -10 65 l-7 62 117 3 c101 3
119 6 129 21 9 15 7 21 -9 33 -16 13 -42 15 -131 12 l-112 -4 -6 50 c-9 77 -7
238 4 361 12 125 21 183 52 307 l21 86 -22 77 c-35 117 -48 179 -67 315 -22
158 -25 571 -6 705 37 249 107 510 175 645 28 57 36 65 63 68 35 3 153 -41
241 -90 174 -96 330 -222 530 -426 l163 -166 36 18 c20 9 38 16 39 14 2 -2 87
-172 190 -378 102 -206 193 -381 200 -389 12 -12 17 -12 29 -1 9 7 16 19 16
26 0 7 -83 182 -185 389 -102 206 -185 380 -185 385 0 6 5 10 12 10 7 0 53 16
103 35 165 63 332 105 520 129 55 8 101 13 102 12 1 0 15 -96 32 -211 78 -528
85 -567 103 -579 14 -8 21 -7 33 5 14 14 13 34 -14 205 -17 104 -42 268 -56
364 -14 96 -28 185 -31 198 l-5 23 156 -2 c85 -1 157 -1 159 2 2 2 27 56 57
119 97 211 211 392 345 545 100 115 255 235 302 235 9 0 30 -10 46 -21z"/>
<path d="M5738 7065 c-75 -51 -195 -227 -237 -345 -10 -30 -17 -60 -14 -67 3
-7 31 -20 62 -29 250 -70 415 -148 604 -287 37 -27 71 -47 74 -43 19 19 -95
327 -184 496 -106 202 -185 300 -241 300 -15 0 -44 -11 -64 -25z"/>
<path d="M3152 6587 c-45 -48 -90 -241 -112 -477 -17 -197 -10 -420 14 -420 6
0 34 37 63 83 107 168 273 343 433 454 45 31 56 45 58 71 3 27 -5 41 -54 93
-68 71 -166 146 -248 189 -72 37 -123 40 -154 7z"/>
<path d="M4441 6566 c-9 -11 18 -117 119 -477 72 -255 135 -468 140 -473 11
-11 39 0 46 19 4 8 -17 95 -44 193 -28 97 -85 299 -127 447 -42 149 -78 278
-81 288 -6 20 -37 23 -53 3z"/>
<path d="M5725 5907 c-17 -12 -83 -59 -147 -105 -64 -46 -122 -89 -128 -97
-15 -18 -10 -45 11 -58 13 -8 49 12 177 104 88 63 163 120 166 127 9 20 -12
52 -32 51 -9 0 -31 -10 -47 -22z"/>
<path d="M5920 5514 c-111 -30 -214 -113 -272 -220 -34 -64 -67 -180 -75 -270
-5 -65 -4 -72 18 -92 29 -28 44 -28 73 1 17 17 26 43 34 99 40 268 212 405
442 353 41 -10 90 -20 108 -22 67 -11 114 57 71 103 -49 52 -280 80 -399 48z"/>
<path d="M3607 5394 c-4 -4 -7 -20 -7 -35 0 -31 -9 -28 180 -60 69 -11 150
-21 180 -22 55 -2 55 -2 55 28 l0 30 -155 26 c-221 37 -245 40 -253 33z"/>
<path d="M6435 5254 c-134 -115 -255 -226 -255 -233 0 -4 6 -16 14 -26 13 -18
15 -18 39 -2 13 9 58 47 98 84 41 38 111 99 157 137 63 52 82 74 80 90 -6 42
-40 29 -133 -50z"/>
<path d="M3622 5001 c-29 -11 -69 -30 -90 -42 -68 -42 -177 -131 -190 -156
-12 -23 -12 -29 6 -52 31 -42 79 -40 133 4 121 102 209 140 302 131 56 -6 132
-38 172 -73 32 -29 89 -104 120 -158 15 -27 37 -60 48 -72 28 -31 72 -30 93 2
15 23 15 29 0 68 -53 141 -162 269 -273 324 -69 34 -84 38 -172 40 -76 3 -107
-1 -149 -16z"/>
<path d="M6962 4998 c-35 -44 -43 -204 -12 -255 31 -51 62 -67 105 -53 52 17
68 48 63 118 -4 56 -41 146 -75 185 -19 20 -66 23 -81 5z"/>
<path d="M7337 4970 c-34 -27 -88 -138 -94 -194 -5 -40 -2 -48 25 -76 60 -59
135 -28 162 68 14 53 12 147 -4 187 -18 41 -49 46 -89 15z"/>
<path d="M6698 4768 c-18 -33 -14 -187 6 -226 32 -63 94 -80 141 -39 41 36 44
85 7 160 -55 111 -124 158 -154 105z"/>
<path d="M7562 4715 c-41 -34 -90 -110 -103 -158 -24 -88 41 -157 116 -122 47
23 68 72 73 176 4 78 2 89 -17 108 -27 27 -33 26 -69 -4z"/>
<path d="M5014 4690 c-12 -5 -61 -16 -108 -26 -132 -26 -169 -69 -108 -127 30
-28 99 -57 139 -57 25 0 25 -1 21 -77 -2 -43 -10 -91 -18 -108 -22 -43 -75
-75 -124 -75 -55 0 -85 17 -119 68 -27 40 -58 54 -72 32 -22 -36 50 -140 119
-171 53 -24 139 -24 191 0 23 10 59 39 82 65 l41 47 51 -21 c62 -24 138 -26
189 -5 87 37 151 140 139 227 -12 88 -65 87 -64 -1 1 -56 -19 -93 -66 -121
-38 -23 -106 -26 -145 -6 -38 20 -86 73 -111 123 l-21 42 26 18 c39 25 84 92
84 124 0 49 -65 74 -126 49z"/>
<path d="M3277 4593 c-16 -16 -6 -53 16 -58 12 -2 96 -23 187 -46 192 -48 209
-50 224 -27 19 31 -12 45 -208 92 -197 48 -208 50 -219 39z"/>
<path d="M7078 4520 c-47 -25 -214 -184 -234 -223 -19 -36 -22 -164 -4 -197
22 -43 63 -80 100 -90 20 -5 74 -10 120 -9 47 0 101 -5 120 -11 19 -5 59 -10
89 -10 51 0 57 3 95 43 66 68 85 170 46 255 -21 46 -98 160 -139 205 -54 60
-124 73 -193 37z"/>
<path d="M3450 4331 c-95 -6 -95 -6 -98 -34 l-3 -28 143 3 143 3 0 30 c0 29
-2 30 -45 31 -25 0 -88 -2 -140 -5z"/>
<path d="M3521 4135 c-69 -46 -134 -93 -145 -105 l-20 -20 20 -20 20 -21 130
87 c160 107 182 127 164 148 -7 9 -20 16 -29 15 -9 0 -72 -38 -140 -84z"/>
</g>
</svg>
