<?xml version="1.0" standalone="no"?>
<!DOCTYPE svg PUBLIC "-//W3C//DTD SVG 20010904//EN"
 "http://www.w3.org/TR/2001/REC-SVG-20010904/DTD/svg10.dtd">
<svg version="1.0" xmlns="http://www.w3.org/2000/svg"
 width="1024.000000pt" height="1024.000000pt" viewBox="0 0 1024.000000 1024.000000"
 preserveAspectRatio="xMidYMid meet">
<metadata>
Created by potrace 1.16, written by Peter Selinger 2001-2019
</metadata>
<g transform="translate(0.000000,1024.000000) scale(0.100000,-0.100000)"
fill="#000000" stroke="none">
<path d="M5784 7690 c-215 -108 -466 -405 -647 -766 l-56 -111 -188 -6 c-296
-8 -568 -64 -837 -172 l-109 -44 -91 96 c-238 251 -546 467 -773 542 -176 59
-248 -3 -355 -303 -83 -232 -126 -488 -135 -796 -8 -288 19 -548 79 -773 l21
-78 -22 -104 c-38 -189 -54 -357 -49 -532 l4 -162 -110 -3 c-111 -3 -111 -3
-111 -28 l0 -25 117 -3 118 -3 0 -37 c0 -20 4 -52 9 -70 11 -38 16 -37 -149
-52 -148 -14 -160 -17 -160 -38 0 -35 16 -38 142 -25 202 20 179 29 206 -84
12 -53 19 -100 15 -104 -5 -4 -39 -15 -78 -25 -81 -21 -95 -29 -95 -56 0 -30
26 -32 103 -8 40 13 78 23 85 24 7 1 23 -31 38 -74 90 -265 272 -550 484 -756
778 -759 2137 -973 3192 -503 125 56 258 129 368 202 223 148 459 398 625 662
111 176 238 456 290 637 10 37 23 59 35 63 32 10 110 104 140 168 38 79 50
146 50 264 0 108 -18 190 -60 272 -31 62 -97 133 -140 151 -19 8 -33 27 -49
65 -33 81 -90 138 -177 182 -69 34 -83 37 -163 37 -64 1 -97 -4 -128 -18 l-41
-18 -71 28 c-51 21 -71 34 -71 47 0 10 -21 80 -46 155 -55 165 -149 366 -233
495 -61 94 -61 95 -86 238 -45 258 -94 435 -176 644 -109 274 -299 586 -454
746 -94 97 -158 111 -261 59z m136 -135 c16 -8 71 -71 122 -139 202 -269 359
-607 447 -961 29 -120 71 -347 71 -390 0 -12 14 -40 31 -61 90 -113 209 -352
279 -563 l40 -116 -23 -9 c-133 -53 -218 -126 -257 -219 -17 -41 -31 -59 -52
-68 -16 -6 -46 -24 -66 -38 -20 -15 -71 -42 -112 -60 -41 -19 -84 -42 -95 -52
-18 -18 -18 -20 -2 -36 16 -16 19 -16 63 5 26 13 48 21 51 19 2 -3 -5 -33 -16
-68 -46 -139 -6 -352 89 -477 22 -29 40 -60 40 -70 0 -27 -91 -228 -155 -342
-72 -128 -153 -249 -211 -314 -48 -52 -55 -87 -27 -118 26 -29 59 -22 109 24
154 142 409 597 431 770 5 45 4 48 -42 95 -70 71 -106 154 -113 258 -3 54 0
101 8 130 18 65 87 138 150 161 39 14 52 24 56 44 16 79 29 106 73 150 49 49
117 80 177 80 40 0 106 -23 146 -51 l30 -22 60 29 c153 73 316 1 363 -160 13
-45 20 -54 51 -65 53 -19 108 -74 135 -134 32 -72 40 -260 14 -339 -26 -78
-66 -131 -121 -159 -44 -22 -49 -29 -64 -84 -128 -444 -416 -903 -733 -1167
-290 -241 -740 -429 -1213 -505 -158 -26 -687 -25 -859 0 -549 82 -1045 306
-1414 637 -134 120 -309 349 -394 515 -28 54 -127 298 -124 302 1 1 56 17 122
36 96 28 121 39 123 54 6 43 -18 44 -138 8 -63 -19 -116 -32 -119 -30 -2 3
-14 42 -26 89 l-23 84 45 6 c25 3 67 6 94 6 51 0 82 20 77 49 -4 18 -30 20
-150 8 l-77 -8 -7 61 -7 60 -56 2 c-31 1 23 5 119 8 l175 5 3 28 c4 30 8 29
-183 31 l-70 1 1 225 c1 234 10 316 56 498 l21 84 -27 87 c-103 336 -114 843
-26 1246 35 162 106 371 150 443 26 41 55 42 159 2 191 -74 400 -227 644 -473
l179 -180 35 17 c20 9 38 15 40 12 3 -2 89 -175 193 -384 103 -209 193 -383
199 -387 14 -8 41 12 41 31 0 7 -85 185 -190 394 -160 322 -186 382 -172 387
9 3 49 19 88 34 85 33 253 83 355 104 66 15 281 45 286 41 1 -1 27 -170 58
-376 31 -206 58 -382 61 -392 7 -22 35 -31 50 -16 11 11 8 42 -11 168 -14 85
-38 247 -55 360 -17 113 -33 218 -36 233 l-6 28 152 -2 c116 -1 155 2 165 13
7 7 31 56 54 109 50 115 142 276 231 402 116 165 348 377 412 377 10 0 32 -7
48 -15z"/>
<path d="M5749 7070 c-37 -20 -91 -79 -147 -162 -47 -69 -112 -208 -112 -240
0 -24 5 -29 43 -38 254 -67 418 -144 615 -288 41 -29 76 -51 80 -48 17 18 -78
276 -170 461 -111 222 -196 336 -251 335 -12 -1 -38 -9 -58 -20z"/>
<path d="M3146 6577 c-66 -86 -125 -487 -111 -754 4 -73 11 -133 16 -133 4 0
40 47 79 105 125 183 249 312 415 430 90 65 90 83 -7 179 -113 113 -264 206
-332 206 -28 0 -40 -7 -60 -33z"/>
<path d="M4441 6566 c-11 -13 -4 -39 204 -775 24 -85 51 -161 59 -170 15 -14
18 -14 33 1 15 16 13 28 -31 185 -27 92 -83 294 -127 448 -44 154 -84 290 -89
303 -11 25 -32 29 -49 8z"/>
<path d="M5700 5886 c-194 -132 -255 -181 -255 -206 0 -19 6 -26 25 -28 18 -2
63 25 165 99 171 123 175 127 168 147 -6 16 -22 32 -33 32 -3 0 -34 -20 -70
-44z"/>
<path d="M5935 5516 c-205 -50 -341 -235 -362 -495 -5 -62 -3 -68 21 -90 22
-21 29 -23 51 -13 30 14 38 32 58 142 32 169 118 281 244 320 82 25 120 25
218 0 43 -11 88 -20 99 -20 32 0 63 26 69 56 8 44 -27 68 -130 93 -100 23
-192 26 -268 7z"/>
<path d="M3607 5393 c-16 -15 -6 -54 16 -63 39 -15 356 -62 377 -55 16 5 20
14 18 33 -3 26 -5 27 -193 58 -216 37 -209 36 -218 27z"/>
<path d="M6395 5217 c-233 -204 -219 -190 -206 -215 6 -12 16 -22 21 -22 6 0
54 39 108 88 54 48 132 116 175 151 58 48 77 70 75 85 -7 46 -41 28 -173 -87z"/>
<path d="M3625 4999 c-66 -23 -165 -85 -238 -149 -52 -46 -62 -84 -29 -113 34
-31 72 -21 147 40 102 82 163 108 255 108 59 0 85 -5 123 -23 66 -33 126 -95
177 -183 55 -94 78 -119 107 -119 33 0 66 36 58 63 -14 50 -80 169 -124 224
-121 150 -308 209 -476 152z"/>
<path d="M6954 4978 c-13 -24 -18 -59 -18 -125 -1 -78 2 -96 20 -120 43 -59
112 -62 148 -8 32 49 7 169 -53 254 -32 44 -74 43 -97 -1z"/>
<path d="M7327 4958 c-44 -47 -81 -134 -81 -191 -1 -41 3 -52 27 -73 49 -42
110 -26 142 37 19 36 30 143 21 192 -14 72 -59 87 -109 35z"/>
<path d="M6706 4774 c-21 -20 -22 -180 -2 -228 37 -88 151 -85 171 5 10 43
-28 138 -77 194 -42 47 -66 55 -92 29z"/>
<path d="M7553 4706 c-47 -40 -96 -131 -97 -181 -1 -58 31 -95 84 -95 38 0 65
21 90 69 18 34 25 182 11 209 -16 29 -52 28 -88 -2z"/>
<path d="M5015 4689 c-16 -5 -70 -19 -120 -30 -49 -11 -98 -27 -107 -36 -24
-22 -23 -55 5 -81 30 -28 105 -62 140 -62 27 0 27 0 27 -70 0 -109 -35 -168
-110 -187 -67 -18 -132 13 -166 80 -14 27 -47 36 -59 17 -11 -17 15 -80 48
-117 42 -48 99 -73 167 -73 73 0 127 26 177 85 l41 48 50 -21 c134 -58 280 5
319 137 24 85 3 163 -39 140 -16 -9 -18 -17 -14 -47 17 -104 -114 -189 -212
-138 -38 20 -86 73 -111 123 l-21 42 31 23 c36 27 79 95 79 126 0 43 -58 62
-125 41z"/>
<path d="M3277 4593 c-4 -3 -7 -16 -7 -29 0 -20 11 -25 138 -54 75 -17 168
-41 206 -52 67 -19 70 -19 83 -2 29 39 19 44 -203 98 -204 49 -207 50 -217 39z"/>
<path d="M7081 4519 c-56 -29 -220 -185 -238 -226 -7 -18 -13 -66 -13 -106 0
-60 4 -80 23 -107 43 -64 63 -72 188 -75 63 -2 130 -8 149 -14 49 -15 106 -14
140 4 80 41 124 179 86 269 -24 59 -134 214 -171 242 -49 37 -107 42 -164 13z"/>
<path d="M3460 4331 c-104 -6 -105 -6 -105 -31 l0 -25 120 -3 c151 -4 167 0
163 36 -4 31 -9 32 -178 23z"/>
<path d="M3513 4127 c-138 -94 -161 -120 -130 -146 15 -12 14 -13 215 126 75
52 93 69 90 86 -2 12 -10 23 -20 25 -9 2 -78 -39 -155 -91z"/>
</g>
</svg>
