<?xml version="1.0" standalone="no"?>
<!DOCTYPE svg PUBLIC "-//W3C//DTD SVG 20010904//EN"
 "http://www.w3.org/TR/2001/REC-SVG-20010904/DTD/svg10.dtd">
<svg version="1.0" xmlns="http://www.w3.org/2000/svg"
 width="1024.000000pt" height="1024.000000pt" viewBox="0 0 1024.000000 1024.000000"
 preserveAspectRatio="xMidYMid meet">
<metadata>
Created by potrace 1.16, written by Peter Selinger 2001-2019
</metadata>
<g transform="translate(0.000000,1024.000000) scale(0.100000,-0.100000)"
fill="#000000" stroke="none">
<path d="M5795 7701 c-64 -29 -193 -132 -281 -223 -146 -152 -277 -344 -390
-572 l-49 -98 -75 6 c-211 18 -623 -54 -887 -154 -59 -23 -121 -46 -136 -52
-27 -10 -33 -6 -160 121 -149 147 -267 245 -409 338 -101 66 -273 153 -343
172 -64 17 -133 14 -170 -9 -106 -65 -238 -437 -287 -805 -8 -63 -13 -206 -13
-390 0 -317 9 -406 65 -642 l29 -122 -20 -92 c-35 -161 -49 -305 -49 -504 l0
-191 -87 1 c-106 1 -130 -2 -137 -21 -15 -38 2 -44 120 -44 l113 0 5 -32 c12
-82 14 -108 8 -109 -4 0 -72 -8 -152 -17 -131 -15 -145 -19 -148 -37 -5 -44 5
-46 157 -30 180 19 171 19 171 -8 0 -20 19 -104 36 -159 4 -14 -7 -20 -53 -33
-121 -34 -123 -35 -123 -61 0 -36 22 -39 110 -14 43 12 83 19 88 16 6 -3 14
-21 17 -39 14 -62 113 -279 175 -382 218 -361 513 -623 945 -840 305 -153 610
-245 970 -292 195 -25 596 -25 785 0 151 21 288 47 400 78 215 58 504 180 687
290 444 266 796 727 992 1301 35 100 42 113 82 145 161 127 214 411 121 641
-38 92 -70 134 -137 178 -40 27 -57 46 -70 80 -26 67 -105 148 -182 185 -90
43 -203 51 -283 20 l-55 -21 -61 27 -62 26 -32 106 c-64 211 -165 430 -270
586 -40 60 -51 86 -60 142 -58 368 -145 655 -284 931 -130 258 -318 522 -422
591 -56 37 -125 42 -189 12z m160 -183 c69 -72 179 -230 257 -368 169 -300
280 -633 333 -999 15 -101 21 -118 51 -158 80 -105 183 -307 248 -487 68 -186
68 -179 9 -201 -99 -37 -188 -118 -227 -206 -24 -56 -69 -88 -233 -168 -102
-49 -109 -55 -97 -85 8 -21 27 -20 75 5 23 11 42 19 44 17 2 -2 -6 -30 -17
-63 -17 -51 -19 -76 -15 -165 7 -140 47 -254 119 -335 30 -35 30 -37 19 -78
-22 -73 -167 -358 -239 -467 -38 -58 -90 -128 -116 -156 -36 -40 -46 -60 -46
-86 0 -42 15 -58 55 -58 26 0 43 12 96 68 135 140 266 358 365 605 60 148 59
174 -6 243 -78 83 -116 193 -108 313 8 112 56 179 161 225 48 22 57 30 57 51
0 69 61 154 138 192 82 40 148 38 229 -7 l62 -34 56 29 c44 22 70 28 116 28
119 -1 210 -73 242 -192 10 -39 17 -46 62 -66 113 -50 162 -166 152 -355 -7
-139 -52 -226 -138 -270 -47 -24 -44 -20 -78 -132 -115 -381 -356 -781 -625
-1036 -311 -295 -795 -511 -1321 -589 -147 -21 -633 -24 -785 -4 -314 41 -613
128 -880 257 -453 219 -758 495 -965 873 -48 89 -142 317 -134 326 2 1 56 18
119 37 107 32 115 36 118 61 2 17 -2 29 -11 33 -8 3 -66 -10 -128 -29 -80 -25
-116 -31 -120 -23 -9 14 -41 158 -37 162 2 1 44 6 93 10 95 7 115 15 115 46 0
28 -19 31 -122 20 -51 -6 -96 -7 -99 -4 -4 4 -10 33 -14 64 l-6 57 117 3 c96
3 119 6 127 20 8 12 7 21 -2 32 -11 13 -36 16 -131 16 l-118 0 -8 98 c-13 170
19 485 65 638 16 54 17 66 5 100 -105 300 -131 784 -64 1179 40 234 146 560
192 589 49 31 294 -87 488 -234 117 -89 257 -218 354 -326 49 -55 96 -103 103
-107 9 -5 30 -2 52 6 l38 16 181 -368 c100 -202 190 -379 201 -392 l20 -24 20
20 20 20 -190 384 c-104 211 -186 387 -182 391 13 12 191 76 288 103 125 35
223 55 341 70 l101 13 12 -80 c66 -456 105 -693 116 -705 17 -18 55 -5 55 19
0 11 -4 41 -9 67 -6 26 -26 158 -46 293 -20 135 -43 283 -50 329 l-13 83 155
-4 154 -4 83 171 c133 272 292 491 458 631 83 70 139 104 172 104 11 0 43 -24
71 -52z"/>
<path d="M5744 7071 c-99 -60 -295 -384 -256 -423 6 -6 62 -26 125 -44 196
-56 405 -161 549 -275 27 -21 54 -39 60 -39 17 0 1 72 -43 193 -120 327 -293
607 -374 607 -17 0 -44 -8 -61 -19z"/>
<path d="M3162 6603 c-58 -23 -118 -319 -129 -633 -6 -195 0 -280 20 -280 7 0
28 26 47 57 95 156 291 368 429 463 44 30 83 63 86 72 10 27 -19 70 -94 140
-73 69 -156 130 -228 167 -39 19 -101 26 -131 14z"/>
<path d="M4433 6564 c-3 -9 4 -48 16 -87 12 -40 71 -247 131 -461 60 -214 113
-393 118 -398 6 -6 20 -7 32 -3 18 6 21 13 18 38 -4 27 -219 798 -249 895 -8
25 -16 32 -35 32 -14 0 -27 -7 -31 -16z"/>
<path d="M5606 5822 c-82 -59 -154 -115 -160 -124 -13 -22 3 -53 28 -53 20 0
323 214 331 233 7 20 -13 52 -33 52 -9 0 -84 -49 -166 -108z"/>
<path d="M5921 5514 c-80 -21 -147 -62 -202 -122 -83 -91 -135 -220 -146 -363
-5 -69 -4 -78 16 -98 52 -52 94 -10 112 108 14 101 71 223 124 270 86 75 191
101 307 75 40 -8 94 -18 119 -21 41 -5 48 -2 67 22 47 59 18 94 -103 124 -98
25 -214 27 -294 5z"/>
<path d="M3607 5393 c-15 -14 -7 -62 11 -67 43 -12 347 -57 371 -54 19 2 27
10 29 27 2 13 0 27 -5 32 -7 7 -356 69 -389 69 -6 0 -14 -3 -17 -7z"/>
<path d="M6444 5263 c-265 -230 -283 -251 -242 -276 13 -9 27 -2 70 36 29 26
108 95 176 154 93 81 122 112 120 127 -6 42 -42 30 -124 -41z"/>
<path d="M3635 5007 c-64 -22 -115 -51 -200 -116 -106 -81 -122 -109 -85 -149
35 -38 78 -29 151 29 35 29 93 66 129 83 168 80 331 7 445 -203 52 -95 89
-115 138 -73 25 22 22 41 -28 139 -62 124 -143 211 -242 260 -69 34 -84 38
-172 40 -60 2 -111 -2 -136 -10z"/>
<path d="M6953 4984 c-26 -40 -31 -189 -8 -238 24 -50 72 -74 114 -57 16 7 37
21 47 32 36 40 12 168 -47 248 -36 51 -78 57 -106 15z"/>
<path d="M7328 4963 c-35 -37 -79 -126 -85 -174 -10 -73 28 -119 98 -119 61 0
99 78 99 202 0 80 -16 112 -55 116 -23 2 -37 -4 -57 -25z"/>
<path d="M6694 4755 c-16 -40 -18 -91 -4 -166 18 -101 100 -141 161 -80 38 38
38 77 0 156 -57 121 -127 161 -157 90z"/>
<path d="M7559 4713 c-44 -38 -97 -123 -105 -171 -12 -78 51 -139 116 -112 52
22 74 71 78 181 4 92 3 97 -19 113 -30 21 -32 21 -70 -11z"/>
<path d="M5000 4689 c-14 -6 -59 -17 -100 -25 -109 -21 -150 -59 -121 -113 14
-25 111 -71 150 -71 l31 0 0 -67 c0 -84 -26 -145 -72 -173 -68 -41 -162 -15
-195 55 -14 29 -22 35 -43 33 -21 -3 -25 -8 -23 -36 3 -83 107 -162 212 -162
73 1 127 26 178 84 l41 46 43 -20 c116 -52 258 -7 315 101 22 41 26 161 6 181
-24 24 -47 -4 -50 -62 -5 -86 -58 -140 -137 -140 -73 0 -139 50 -185 139 l-19
39 35 27 c71 54 95 129 52 159 -25 18 -80 20 -118 5z"/>
<path d="M3270 4581 c-17 -33 8 -45 166 -80 82 -19 166 -40 188 -47 21 -8 47
-14 57 -14 24 0 38 48 18 61 -16 9 -379 99 -402 99 -9 0 -21 -9 -27 -19z"/>
<path d="M7085 4526 c-39 -17 -192 -158 -227 -208 -47 -68 -49 -178 -5 -246
35 -53 88 -72 196 -72 51 0 120 -7 152 -15 78 -20 124 -9 172 44 45 50 60 98
55 177 -4 60 -8 70 -78 173 -85 124 -129 161 -195 161 -22 -1 -53 -7 -70 -14z"/>
<path d="M3410 4331 c-51 -6 -55 -8 -58 -34 l-3 -28 143 3 143 3 0 30 0 30
-85 1 c-47 1 -110 -2 -140 -5z"/>
<path d="M3521 4135 c-156 -106 -167 -116 -152 -144 7 -11 17 -21 24 -21 7 0
46 24 87 53 41 29 105 72 142 97 70 47 81 60 72 85 -12 29 -51 14 -173 -70z"/>
</g>
</svg>
